<svg width="134" height="20" viewBox="0 0 134 20" fill="none" xmlns="http://www.w3.org/2000/svg">
<path d="M0.793324 19H4.087V13.5845L6.10227 11.2053L11.5266 19H15.4862L8.39276 8.97692L15.424 0.818181H11.4023L4.30895 9.17223H4.087V0.818181H0.793324V19ZM32.9822 9.90909C32.9822 4.03196 29.3955 0.569602 24.6281 0.569602C19.8518 0.569602 16.2741 4.03196 16.2741 9.90909C16.2741 15.7773 19.8518 19.2486 24.6281 19.2486C29.3955 19.2486 32.9822 15.7862 32.9822 9.90909ZM29.6707 9.90909C29.6707 14.0462 27.5933 16.2923 24.6281 16.2923C21.6718 16.2923 19.5855 14.0462 19.5855 9.90909C19.5855 5.77202 21.6718 3.52592 24.6281 3.52592C27.5933 3.52592 29.6707 5.77202 29.6707 9.90909ZM51.0375 0.818181H47.7615V13.2116H47.6017L39.0435 0.818181H36.0961V19H39.3897V6.61541H39.5407L48.1078 19H51.0375V0.818181ZM53.8273 3.57919H59.447V19H62.714V3.57919H68.3337V0.818181H53.8273V3.57919ZM82.5915 0.818181V12.4215C82.5915 14.7031 81.0024 16.3366 78.5077 16.3366C76.0042 16.3366 74.4239 14.7031 74.4239 12.4215V0.818181H71.1302V12.6967C71.1302 16.603 74.0599 19.2752 78.5077 19.2752C82.9378 19.2752 85.8852 16.603 85.8852 12.6967V0.818181H82.5915ZM89.4652 19H92.7589V12.3416H96.1147L99.6836 19H103.359L99.4261 11.7912C101.566 10.93 102.693 9.10121 102.693 6.63317C102.693 3.16193 100.456 0.818181 96.2834 0.818181H89.4652V19ZM92.7589 9.60724V3.57031H95.7773C98.2365 3.57031 99.3374 4.6978 99.3374 6.63317C99.3374 8.56854 98.2365 9.60724 95.7951 9.60724H92.7589ZM111.883 5.90909H110.375V19H111.883V5.90909ZM114.646 19H116.155V9.18182H114.646V19ZM115.413 7.54545C116.001 7.54545 116.487 7.08523 116.487 6.52273C116.487 5.96023 116.001 5.5 115.413 5.5C114.825 5.5 114.339 5.96023 114.339 6.52273C114.339 7.08523 114.825 7.54545 115.413 7.54545ZM123.188 9.18182H121.091V6.82955H119.583V9.18182H118.1V10.4602H119.583V16.5966C119.583 18.3097 120.963 19.1278 122.242 19.1278C122.804 19.1278 123.162 19.0256 123.367 18.9489L123.06 17.5938C122.932 17.6193 122.727 17.6705 122.395 17.6705C121.73 17.6705 121.091 17.4659 121.091 16.1875V10.4602H123.188V9.18182ZM129.468 19.2045C131.462 19.2045 132.92 18.2074 133.38 16.7244L131.922 16.3153C131.539 17.3381 130.65 17.8494 129.468 17.8494C127.697 17.8494 126.476 16.7053 126.406 14.6023H133.533V13.9631C133.533 10.3068 131.36 9.05398 129.314 9.05398C126.655 9.05398 124.891 11.1506 124.891 14.1676C124.891 17.1847 126.63 19.2045 129.468 19.2045ZM126.406 13.2983C126.508 11.7706 127.589 10.4091 129.314 10.4091C130.951 10.4091 131.999 11.6364 131.999 13.2983H126.406Z" fill="#FCFCFC"/>
</svg>
